<svg xmlns="http://www.w3.org/2000/svg" width="610" height="100" viewBox="0 0 610 100"><path fill="#bd10e0" d="M55.42 25.59L55.42 25.59Q55.42 36.52 47.95 42.36Q40.48 48.19 26.90 48.19L26.90 48.19L18.70 48.19L18.70 75.98L9.72 75.98L9.72 4.59L28.61 4.59Q55.42 4.59 55.42 25.59ZM18.70 12.26L18.70 40.48L25.88 40.48Q36.52 40.48 41.31 37.04Q46.09 33.59 46.09 25.98L46.09 25.98Q46.09 19.09 41.65 15.67Q37.21 12.26 27.78 12.26L27.78 12.26L18.70 12.26ZM77.78 0L77.78 75.98L68.99 75.98L68.99 0L77.78 0ZM134.28 75.98L127.88 75.98L126.17 68.36L125.78 68.36Q121.78 73.39 117.80 75.17Q113.82 76.95 107.76 76.95L107.76 76.95Q99.85 76.95 95.36 72.80Q90.87 68.65 90.87 61.08L90.87 61.08Q90.87 44.78 116.60 43.99L116.60 43.99L125.68 43.65L125.68 40.48Q125.68 34.38 123.05 31.47Q120.41 28.56 114.60 28.56L114.60 28.56Q110.35 28.56 106.57 29.83Q102.78 31.10 99.46 32.67L99.46 32.67L96.78 26.07Q100.83 23.93 105.62 22.71Q110.40 21.48 115.09 21.48L115.09 21.48Q124.80 21.48 129.54 25.78Q134.28 30.08 134.28 39.45L134.28 39.45L134.28 75.98ZM109.77 69.87L109.77 69.87Q117.14 69.87 121.36 65.89Q125.59 61.91 125.59 54.59L125.59 54.59L125.59 49.76L117.68 50.10Q108.45 50.44 104.22 53.03Q100 55.62 100 61.18L100 61.18Q100 65.38 102.56 67.63Q105.13 69.87 109.77 69.87ZM196.09 75.98L187.40 75.98L187.40 41.70Q187.40 35.16 184.50 31.96Q181.59 28.76 175.39 28.76L175.39 28.76Q167.14 28.76 163.40 33.33Q159.67 37.89 159.67 48.19L159.67 48.19L159.67 75.98L150.88 75.98L150.88 22.36L157.96 22.36L159.28 29.69L159.77 29.69Q162.26 25.73 166.75 23.56Q171.24 21.39 176.66 21.39L176.66 21.39Q186.52 21.39 191.31 26.17Q196.09 30.96 196.09 41.06L196.09 41.06L196.09 75.98ZM230.62 69.78L230.62 69.78Q232.32 69.78 234.62 69.43Q236.91 69.09 238.09 68.65L238.09 68.65L238.09 75.39Q236.87 75.93 234.30 76.44Q231.74 76.95 229.10 76.95L229.10 76.95Q213.38 76.95 213.38 60.40L213.38 60.40L213.38 29.20L205.81 29.20L205.81 25L213.48 21.48L216.99 10.06L222.22 10.06L222.22 22.36L237.70 22.36L237.70 29.20L222.22 29.20L222.22 60.16Q222.22 64.79 224.44 67.29Q226.66 69.78 230.62 69.78ZM281.59 84.96L281.59 91.80L240.09 91.80L240.09 84.96L281.59 84.96ZM331.30 75.98L291.11 75.98L291.11 4.59L300.10 4.59L300.10 67.97L331.30 67.97L331.30 75.98ZM351.07 22.36L351.07 75.98L342.29 75.98L342.29 22.36L351.07 22.36ZM341.60 7.86L341.60 7.86Q341.60 4.93 343.09 3.61Q344.58 2.29 346.78 2.29L346.78 2.29Q348.83 2.29 350.37 3.61Q351.90 4.93 351.90 7.86L351.90 7.86Q351.90 10.74 350.37 12.11Q348.83 13.48 346.78 13.48L346.78 13.48Q344.58 13.48 343.09 12.11Q341.60 10.74 341.60 7.86ZM393.46 21.48L393.46 21.48Q404.05 21.48 409.81 28.78Q415.58 36.08 415.58 49.17L415.58 49.17Q415.58 62.45 409.72 69.70Q403.86 76.95 393.46 76.95L393.46 76.95Q388.04 76.95 383.79 75Q379.54 73.05 376.86 69.19L376.86 69.19L376.17 69.19Q374.66 75.05 374.37 75.98L374.37 75.98L368.07 75.98L368.07 0L376.86 0L376.86 18.46Q376.86 23.97 376.37 29.49L376.37 29.49L376.86 29.49Q382.28 21.48 393.46 21.48ZM391.99 28.76L391.99 28.76Q383.89 28.76 380.37 33.35Q376.86 37.94 376.86 48.88L376.86 48.88L376.86 49.27Q376.86 60.25 380.44 64.97Q384.03 69.68 392.19 69.68L392.19 69.68Q399.41 69.68 402.95 64.38Q406.49 59.08 406.49 49.07L406.49 49.07Q406.49 38.92 402.93 33.84Q399.37 28.76 391.99 28.76ZM454.59 21.39L454.59 21.39Q458.15 21.39 460.89 21.97L460.89 21.97L459.81 30.08Q456.84 29.39 454.00 29.39L454.00 29.39Q449.76 29.39 446.12 31.74Q442.48 34.08 440.43 38.21Q438.38 42.33 438.38 47.36L438.38 47.36L438.38 75.98L429.59 75.98L429.59 22.36L436.82 22.36L437.79 32.18L438.18 32.18Q441.26 26.86 445.46 24.12Q449.66 21.39 454.59 21.39ZM509.42 75.98L503.03 75.98L501.32 68.36L500.93 68.36Q496.92 73.39 492.94 75.17Q488.96 76.95 482.91 76.95L482.91 76.95Q475 76.95 470.51 72.80Q466.02 68.65 466.02 61.08L466.02 61.08Q466.02 44.78 491.75 43.99L491.75 43.99L500.83 43.65L500.83 40.48Q500.83 34.38 498.19 31.47Q495.56 28.56 489.75 28.56L489.75 28.56Q485.50 28.56 481.71 29.83Q477.93 31.10 474.61 32.67L474.61 32.67L471.92 26.07Q475.98 23.93 480.76 22.71Q485.55 21.48 490.23 21.48L490.23 21.48Q499.95 21.48 504.69 25.78Q509.42 30.08 509.42 39.45L509.42 39.45L509.42 75.98ZM484.91 69.87L484.91 69.87Q492.29 69.87 496.51 65.89Q500.73 61.91 500.73 54.59L500.73 54.59L500.73 49.76L492.82 50.10Q483.59 50.44 479.37 53.03Q475.15 55.62 475.15 61.18L475.15 61.18Q475.15 65.38 477.71 67.63Q480.27 69.87 484.91 69.87ZM551.03 21.39L551.03 21.39Q554.59 21.39 557.32 21.97L557.32 21.97L556.25 30.08Q553.27 29.39 550.44 29.39L550.44 29.39Q546.19 29.39 542.55 31.74Q538.92 34.08 536.87 38.21Q534.81 42.33 534.81 47.36L534.81 47.36L534.81 75.98L526.03 75.98L526.03 22.36L533.25 22.36L534.23 32.18L534.62 32.18Q537.70 26.86 541.89 24.12Q546.09 21.39 551.03 21.39ZM580.52 76.17L558.94 22.36L568.36 22.36L579.93 52.88Q583.59 62.84 584.42 67.48L584.42 67.48L584.81 67.48Q585.25 65.67 586.82 60.72Q588.38 55.76 589.45 52.78L589.45 52.78L600.34 22.36L609.81 22.36L586.72 83.40Q583.35 92.29 578.71 96.14Q574.07 100 567.24 100L567.24 100Q563.57 100 559.96 99.17L559.96 99.17L559.96 92.19Q562.40 92.77 565.82 92.77L565.82 92.77Q570.02 92.77 572.95 90.45Q575.88 88.13 577.73 83.30L577.73 83.30L580.52 76.17Z"></path></svg>